<svg xmlns="http://www.w3.org/2000/svg" xmlns:xlink="http://www.w3.org/1999/xlink" width="500" zoomAndPan="magnify" viewBox="0 0 375 374.999991" height="500" preserveAspectRatio="xMidYMid meet" version="1.0"><defs><g/><clipPath id="831bf67e29"><path d="M 119 67.496094 L 253 67.496094 L 253 217 L 119 217 Z M 119 67.496094 " clip-rule="nonzero"/></clipPath></defs><g clip-path="url(#831bf67e29)"><path fill="#88ca5e" d="M 194.558594 98.734375 C 194.304688 90.730469 197.234375 82.644531 203.34375 76.535156 C 209.453125 70.425781 217.539062 67.5 225.546875 67.75 C 225.796875 75.757812 222.871094 83.84375 216.761719 89.953125 C 210.652344 96.0625 202.566406 98.988281 194.558594 98.734375 Z M 182.957031 186.773438 C 166.011719 182.105469 148.96875 178.585938 131.082031 185.574219 C 148.359375 173.710938 173.25 181.945312 182.957031 186.773438 Z M 133.355469 108.503906 C 115.929688 122.492188 115.769531 157.980469 126.175781 182.71875 C 146.894531 168.488281 176.742188 178.367188 188.386719 184.15625 C 179.734375 175.871094 180.753906 170.03125 184.746094 159.074219 C 186.246094 154.957031 188.839844 150.3125 186.886719 146.835938 C 183.234375 146.9375 181.878906 149.074219 182.230469 149.476562 C 185.378906 153.082031 179.777344 156.105469 175.332031 155.707031 C 171.316406 155.347656 168.253906 152.804688 166.269531 150.046875 C 162.386719 144.648438 162.078125 136.910156 163.511719 134.5 C 165.707031 130.8125 173.402344 125.289062 180.546875 125.667969 C 210.570312 127.253906 210.808594 193.65625 203.949219 208.605469 C 201.773438 211.515625 198.859375 213.992188 195.46875 216.03125 C 196.847656 216.324219 198.164062 216.5625 199.289062 216.667969 C 208.121094 217.492188 216.757812 214.316406 223.945312 209.730469 C 225.738281 208.582031 226.910156 207.738281 228.441406 206.488281 C 233.226562 202.582031 236.359375 199.285156 240.027344 193.828125 C 255.925781 170.128906 259.019531 124.773438 238.746094 108.503906 C 218.15625 91.980469 202.089844 103.695312 191.222656 107.523438 L 191.222656 81.511719 C 191.222656 78.671875 188.894531 76.34375 186.054688 76.34375 L 186.050781 76.34375 C 183.207031 76.34375 180.882812 78.671875 180.882812 81.511719 L 180.882812 107.53125 C 170.039062 103.710938 153.957031 91.976562 133.355469 108.503906 Z M 247.089844 154.664062 C 244.8125 137.203125 241.292969 120.085938 226.421875 106.121094 C 246.140625 117.695312 248.042969 143.855469 247.089844 154.664062 " fill-opacity="1" fill-rule="evenodd"/></g><g fill="#ffffff" fill-opacity="1"><g transform="translate(65.728562, 262.637622)"><g><path d="M 1.863281 -10.53125 C 1.902344 -10.53125 1.902344 -10.53125 1.902344 -10.53125 C 1.902344 -9.476562 1.902344 -8.421875 1.902344 -7.410156 C 1.902344 -5.832031 1.863281 -4.253906 1.824219 -2.671875 C 1.824219 -1.902344 1.78125 -1.132812 1.742188 -0.363281 C 1.699219 0.285156 2.023438 0.40625 2.550781 0.40625 C 2.59375 0.40625 2.671875 0.363281 2.753906 0.363281 C 2.957031 0.363281 3.199219 0.324219 3.441406 0.324219 C 3.683594 0.324219 3.96875 0.40625 4.210938 0.445312 C 5.144531 0.445312 6.035156 0.484375 6.964844 0.484375 C 7.332031 0.484375 7.574219 0.242188 7.574219 -0.160156 C 7.652344 -1.660156 7.695312 -3.160156 7.734375 -4.699219 C 7.777344 -5.628906 7.734375 -6.601562 7.777344 -7.574219 C 7.777344 -7.855469 7.777344 -7.855469 8.058594 -7.855469 C 8.34375 -7.898438 8.625 -7.898438 8.867188 -7.9375 C 9.273438 -7.976562 9.636719 -8.019531 10.042969 -8.058594 C 10.40625 -8.058594 10.773438 -8.101562 11.136719 -8.140625 C 11.460938 -8.179688 11.824219 -8.261719 12.148438 -8.34375 C 12.796875 -8.464844 13.40625 -8.625 13.972656 -8.949219 C 14.417969 -9.234375 14.863281 -9.4375 15.347656 -9.636719 C 16.078125 -9.921875 16.683594 -10.367188 17.171875 -10.976562 C 17.65625 -11.621094 18.101562 -12.3125 18.425781 -13.039062 C 18.992188 -14.335938 19.316406 -15.632812 19.359375 -17.007812 C 19.4375 -18.914062 19.316406 -20.855469 18.871094 -22.71875 C 18.667969 -23.691406 18.265625 -24.542969 17.898438 -25.433594 C 17.777344 -25.636719 17.617188 -25.796875 17.496094 -26 C 17.414062 -26.121094 17.292969 -26.242188 17.171875 -26.40625 C 16.523438 -27.253906 15.671875 -27.820312 14.621094 -28.105469 C 14.457031 -28.144531 14.253906 -28.1875 14.09375 -28.269531 C 13.648438 -28.429688 13.203125 -28.46875 12.714844 -28.46875 C 12.433594 -28.46875 12.191406 -28.46875 11.945312 -28.46875 C 10.53125 -28.511719 9.113281 -28.550781 7.652344 -28.589844 C 7.085938 -28.589844 6.5625 -28.589844 5.992188 -28.589844 C 4.898438 -28.632812 3.808594 -28.632812 2.714844 -28.632812 C 2.066406 -28.632812 1.78125 -28.347656 1.742188 -27.742188 C 1.621094 -26.730469 1.621094 -25.714844 1.621094 -24.746094 C 1.621094 -24.378906 1.621094 -24.054688 1.660156 -23.691406 C 1.699219 -22.4375 1.863281 -21.179688 1.863281 -19.925781 C 1.902344 -16.808594 1.863281 -13.648438 1.863281 -10.53125 Z M 7.816406 -18.222656 C 7.816406 -19.761719 7.777344 -21.300781 7.777344 -22.839844 C 7.777344 -23.125 7.777344 -23.125 8.058594 -23.125 C 8.910156 -23.125 9.761719 -23.164062 10.652344 -23.164062 C 11.300781 -23.164062 11.90625 -22.960938 12.472656 -22.71875 C 12.757812 -22.597656 12.960938 -22.394531 13.082031 -22.070312 C 13.363281 -21.503906 13.527344 -20.9375 13.527344 -20.289062 C 13.566406 -19.238281 13.605469 -18.183594 13.445312 -17.128906 C 13.363281 -16.359375 13.082031 -15.671875 12.796875 -15.023438 C 12.714844 -14.863281 12.59375 -14.699219 12.554688 -14.5 C 12.390625 -14.09375 12.070312 -13.808594 11.664062 -13.6875 C 11.21875 -13.527344 10.730469 -13.40625 10.285156 -13.324219 C 9.597656 -13.203125 8.867188 -13.203125 8.179688 -13.203125 C 7.9375 -13.203125 7.898438 -13.203125 7.898438 -13.445312 C 7.855469 -13.6875 7.898438 -13.929688 7.898438 -14.175781 C 7.898438 -15.511719 7.855469 -16.886719 7.855469 -18.222656 C 7.855469 -18.222656 7.855469 -18.222656 7.816406 -18.222656 Z M 7.816406 -18.222656 "/></g></g></g><g fill="#ffffff" fill-opacity="1"><g transform="translate(85.93503, 262.637622)"><g><path d="M 1.984375 -13.648438 C 1.945312 -12.714844 1.902344 -11.175781 1.863281 -9.636719 C 1.824219 -7.9375 1.78125 -6.277344 1.742188 -4.578125 C 1.699219 -3.402344 1.699219 -2.1875 1.660156 -0.972656 C 1.621094 -0.527344 1.863281 -0.203125 2.066406 0.121094 C 2.105469 0.203125 2.226562 0.285156 2.347656 0.324219 C 2.753906 0.40625 3.160156 0.566406 3.523438 0.566406 C 4.332031 0.609375 5.144531 0.609375 5.914062 0.566406 C 6.683594 0.527344 7.453125 0.445312 8.222656 0.40625 C 9.273438 0.40625 10.40625 0.40625 11.460938 0.363281 C 12.191406 0.324219 12.878906 0.242188 13.566406 0.242188 C 14.945312 0.203125 16.28125 0.203125 17.65625 0.160156 C 17.859375 0.160156 18.0625 0.160156 18.183594 0 C 18.46875 -0.324219 18.667969 -0.648438 18.667969 -1.09375 C 18.710938 -2.023438 18.546875 -2.957031 18.507812 -3.886719 C 18.507812 -4.210938 18.507812 -4.617188 18.144531 -4.859375 C 18.144531 -4.859375 18.144531 -4.898438 18.101562 -4.941406 C 17.898438 -5.304688 17.496094 -5.507812 17.089844 -5.425781 C 16.929688 -5.425781 16.765625 -5.386719 16.605469 -5.425781 C 16.117188 -5.425781 15.589844 -5.46875 15.105469 -5.46875 C 14.335938 -5.425781 13.566406 -5.347656 12.796875 -5.347656 C 11.421875 -5.304688 10.042969 -5.304688 8.707031 -5.304688 C 8.34375 -5.265625 8.34375 -5.304688 8.34375 -5.628906 C 8.34375 -6.480469 8.34375 -7.332031 8.34375 -8.140625 C 8.300781 -9.636719 8.300781 -11.097656 8.300781 -12.554688 C 8.300781 -13.082031 8.34375 -13.082031 8.867188 -13.082031 C 9.800781 -13.160156 10.730469 -13.203125 11.664062 -13.285156 C 12.515625 -13.324219 13.324219 -13.445312 14.175781 -13.527344 C 14.539062 -13.527344 14.945312 -13.527344 15.347656 -13.527344 C 15.671875 -13.566406 15.875 -13.730469 15.875 -14.09375 C 15.875 -15.023438 15.875 -15.914062 15.835938 -16.808594 C 15.835938 -17.210938 15.792969 -17.617188 15.753906 -18.023438 C 15.714844 -18.304688 15.714844 -18.304688 15.429688 -18.304688 C 15.144531 -18.304688 14.902344 -18.304688 14.621094 -18.304688 C 13.527344 -18.304688 12.390625 -18.34375 11.257812 -18.304688 C 10.367188 -18.304688 9.476562 -18.265625 8.546875 -18.265625 C 8.261719 -18.265625 8.222656 -18.265625 8.222656 -18.589844 C 8.261719 -19.722656 8.300781 -20.855469 8.300781 -22.03125 C 8.34375 -22.273438 8.34375 -22.273438 8.585938 -22.316406 C 9.515625 -22.4375 10.488281 -22.476562 11.421875 -22.515625 C 12.554688 -22.515625 13.648438 -22.515625 14.78125 -22.558594 C 15.589844 -22.597656 16.441406 -22.636719 17.253906 -22.679688 C 17.578125 -22.71875 17.898438 -22.761719 18.101562 -23.042969 C 18.265625 -23.285156 18.386719 -23.570312 18.34375 -23.851562 C 18.304688 -25.109375 18.265625 -26.363281 18.222656 -27.621094 C 18.183594 -28.308594 17.820312 -28.792969 17.089844 -28.835938 C 16.96875 -28.835938 16.808594 -28.835938 16.726562 -28.792969 C 16.320312 -28.714844 15.957031 -28.753906 15.589844 -28.753906 C 14.824219 -28.753906 14.054688 -28.792969 13.324219 -28.792969 C 12.839844 -28.792969 12.390625 -28.835938 11.945312 -28.835938 C 10.246094 -28.835938 8.503906 -28.792969 6.804688 -28.792969 C 6.683594 -28.792969 6.5625 -28.753906 6.398438 -28.753906 C 5.667969 -28.753906 4.898438 -28.753906 4.128906 -28.753906 C 3.765625 -28.753906 3.363281 -28.753906 2.996094 -28.753906 C 2.429688 -28.671875 2.144531 -28.390625 2.144531 -27.820312 C 2.105469 -27.660156 2.144531 -27.539062 2.144531 -27.417969 C 2.144531 -26.851562 2.1875 -26.285156 2.1875 -25.714844 C 2.105469 -21.910156 2.066406 -18.101562 1.984375 -13.648438 Z M 1.984375 -13.648438 "/></g></g></g><g fill="#ffffff" fill-opacity="1"><g transform="translate(106.262984, 262.637622)"><g><path d="M 7.777344 -3.886719 C 7.777344 -4.128906 7.777344 -4.332031 7.777344 -4.578125 C 7.777344 -5.589844 7.777344 -6.601562 7.816406 -7.574219 C 7.816406 -7.855469 7.816406 -7.855469 8.058594 -7.855469 C 8.421875 -7.898438 8.746094 -7.9375 9.113281 -7.976562 C 9.394531 -7.976562 9.679688 -8.019531 9.921875 -8.058594 C 10.125 -8.058594 10.246094 -7.976562 10.285156 -7.816406 C 10.53125 -7.332031 10.8125 -6.84375 11.054688 -6.316406 C 11.542969 -5.222656 12.027344 -4.089844 12.59375 -2.957031 C 13.121094 -1.945312 13.730469 -0.929688 14.296875 0.0820312 C 14.335938 0.121094 14.335938 0.160156 14.375 0.160156 C 14.457031 0.363281 14.621094 0.445312 14.824219 0.40625 C 15.105469 0.40625 15.347656 0.40625 15.589844 0.40625 C 16.765625 0.40625 17.941406 0.40625 19.113281 0.40625 C 19.359375 0.363281 19.5625 0.363281 19.804688 0.324219 C 20.25 0.242188 20.574219 -0.242188 20.453125 -0.6875 C 20.328125 -1.011719 20.167969 -1.375 20.007812 -1.699219 C 19.925781 -1.945312 19.761719 -2.144531 19.683594 -2.347656 C 19.359375 -3.199219 19.035156 -4.007812 18.710938 -4.859375 C 18.46875 -5.347656 18.222656 -5.871094 18.023438 -6.359375 C 17.859375 -6.722656 17.738281 -7.085938 17.535156 -7.410156 C 17.128906 -8.222656 16.726562 -9.03125 16.28125 -9.839844 C 16.199219 -9.960938 16.199219 -10.085938 16.359375 -10.164062 C 16.644531 -10.449219 16.96875 -10.652344 17.171875 -10.976562 C 17.65625 -11.621094 18.144531 -12.269531 18.425781 -13 C 19.035156 -14.417969 19.4375 -15.875 19.398438 -17.453125 C 19.398438 -18.425781 19.359375 -19.398438 19.277344 -20.371094 C 19.15625 -22.152344 18.667969 -23.8125 17.941406 -25.390625 C 17.820312 -25.59375 17.699219 -25.796875 17.535156 -26 C 17.453125 -26.121094 17.332031 -26.242188 17.210938 -26.40625 C 16.5625 -27.253906 15.671875 -27.820312 14.660156 -28.105469 C 14.5 -28.144531 14.335938 -28.1875 14.175781 -28.226562 C 13.6875 -28.429688 13.203125 -28.46875 12.714844 -28.46875 C 12.472656 -28.46875 12.230469 -28.46875 11.988281 -28.46875 C 10.652344 -28.511719 9.355469 -28.550781 8.058594 -28.589844 C 7.085938 -28.632812 6.113281 -28.632812 5.101562 -28.632812 C 4.332031 -28.632812 3.523438 -28.671875 2.714844 -28.632812 C 2.066406 -28.589844 1.824219 -28.347656 1.78125 -27.78125 C 1.742188 -26.851562 1.699219 -25.960938 1.660156 -25.066406 C 1.621094 -24.621094 1.660156 -24.175781 1.660156 -23.730469 C 1.699219 -23.082031 1.824219 -22.4375 1.824219 -21.789062 C 1.902344 -20.734375 1.902344 -19.722656 1.945312 -18.710938 C 1.945312 -15.550781 1.945312 -12.390625 1.945312 -9.234375 C 1.984375 -6.238281 1.902344 -3.28125 1.78125 -0.324219 C 1.742188 0.203125 1.945312 0.40625 2.46875 0.40625 C 2.714844 0.40625 2.957031 0.40625 3.199219 0.445312 C 3.808594 0.445312 4.375 0.527344 4.980469 0.566406 C 5.589844 0.566406 6.15625 0.566406 6.761719 0.566406 C 7.332031 0.566406 7.574219 0.285156 7.613281 -0.285156 C 7.652344 -1.457031 7.734375 -2.671875 7.777344 -3.886719 Z M 7.855469 -18.183594 C 7.855469 -19.761719 7.816406 -21.300781 7.816406 -22.839844 C 7.816406 -23.125 7.816406 -23.125 8.101562 -23.125 C 8.949219 -23.125 9.800781 -23.164062 10.652344 -23.164062 C 11.300781 -23.164062 11.945312 -22.960938 12.515625 -22.71875 C 12.796875 -22.597656 13 -22.394531 13.121094 -22.070312 C 13.40625 -21.503906 13.566406 -20.9375 13.566406 -20.289062 C 13.605469 -19.238281 13.648438 -18.183594 13.484375 -17.128906 C 13.40625 -16.359375 13.121094 -15.671875 12.839844 -15.023438 C 12.714844 -14.863281 12.636719 -14.699219 12.59375 -14.5 C 12.390625 -14.09375 12.109375 -13.808594 11.703125 -13.6875 C 11.257812 -13.527344 10.773438 -13.40625 10.285156 -13.324219 C 9.636719 -13.203125 8.910156 -13.203125 8.222656 -13.203125 C 7.976562 -13.203125 7.9375 -13.203125 7.9375 -13.445312 C 7.898438 -13.6875 7.9375 -13.890625 7.9375 -14.132812 C 7.9375 -15.46875 7.898438 -16.847656 7.898438 -18.183594 C 7.898438 -18.183594 7.898438 -18.183594 7.855469 -18.183594 Z M 7.855469 -18.183594 "/></g></g></g><g fill="#ffffff" fill-opacity="1"><g transform="translate(128.372662, 262.637622)"><g><path d="M 10.449219 0.484375 C 11.664062 0.484375 12.839844 0.363281 13.972656 -0.203125 C 14.214844 -0.363281 14.457031 -0.484375 14.699219 -0.609375 C 15.511719 -1.175781 16.359375 -1.699219 16.96875 -2.511719 C 17.535156 -3.28125 18.101562 -4.007812 18.46875 -4.898438 C 19.238281 -6.640625 19.4375 -8.503906 19.074219 -10.40625 C 18.992188 -10.894531 18.792969 -11.421875 18.628906 -11.90625 C 18.507812 -12.191406 18.34375 -12.433594 18.222656 -12.714844 C 17.941406 -13.285156 17.496094 -13.730469 17.007812 -14.09375 C 16.808594 -14.214844 16.683594 -14.417969 16.484375 -14.578125 C 16.238281 -14.78125 15.957031 -14.984375 15.714844 -15.226562 C 15.226562 -15.632812 14.699219 -15.875 14.132812 -16.160156 C 13.566406 -16.484375 12.960938 -16.726562 12.390625 -17.007812 C 12.230469 -17.089844 12.027344 -17.128906 11.867188 -17.253906 C 11.257812 -17.617188 10.570312 -17.980469 9.960938 -18.386719 C 9.558594 -18.628906 9.191406 -18.914062 8.910156 -19.277344 C 8.625 -19.601562 8.464844 -19.964844 8.421875 -20.371094 C 8.382812 -20.695312 8.421875 -21.058594 8.503906 -21.382812 C 8.625 -21.746094 8.910156 -22.070312 9.234375 -22.316406 C 9.558594 -22.597656 9.921875 -22.800781 10.328125 -22.800781 C 11.175781 -22.882812 12.070312 -22.882812 12.917969 -22.636719 C 13.40625 -22.515625 13.808594 -22.316406 14.132812 -21.949219 C 14.375 -21.707031 14.699219 -21.503906 14.984375 -21.261719 C 15.066406 -21.222656 15.144531 -21.140625 15.226562 -21.140625 C 15.632812 -21.140625 15.996094 -21.179688 16.28125 -21.464844 C 16.5625 -21.746094 16.847656 -22.03125 17.089844 -22.316406 C 17.496094 -22.839844 17.898438 -23.328125 18.304688 -23.851562 C 18.589844 -24.21875 18.628906 -24.582031 18.425781 -24.988281 C 18.183594 -25.390625 17.859375 -25.757812 17.535156 -26.121094 C 17.089844 -26.730469 16.523438 -27.132812 15.914062 -27.539062 C 15.1875 -28.105469 14.375 -28.429688 13.527344 -28.671875 C 12.839844 -28.875 12.148438 -28.957031 11.460938 -28.957031 C 10.246094 -28.914062 9.070312 -28.792969 7.976562 -28.226562 C 7.734375 -28.105469 7.492188 -27.984375 7.25 -27.820312 C 6.398438 -27.296875 5.589844 -26.730469 4.941406 -25.917969 C 4.375 -25.148438 3.808594 -24.421875 3.441406 -23.53125 C 2.671875 -21.789062 2.46875 -19.925781 2.835938 -18.0625 C 2.957031 -17.414062 3.199219 -16.726562 3.484375 -16.117188 C 3.726562 -15.589844 4.007812 -15.105469 4.453125 -14.699219 C 4.859375 -14.375 5.222656 -14.011719 5.628906 -13.6875 C 6.113281 -13.324219 6.601562 -13 7.085938 -12.636719 C 7.332031 -12.472656 7.574219 -12.351562 7.855469 -12.230469 C 8.261719 -12.027344 8.707031 -11.746094 9.152344 -11.582031 C 9.882812 -11.339844 10.488281 -10.933594 11.136719 -10.570312 C 11.582031 -10.328125 11.988281 -10.042969 12.390625 -9.761719 C 12.878906 -9.4375 13.203125 -9.03125 13.40625 -8.503906 C 13.6875 -7.652344 13.484375 -6.882812 12.878906 -6.316406 C 12.433594 -5.871094 11.867188 -5.667969 11.257812 -5.46875 C 10.773438 -5.347656 10.328125 -5.347656 9.839844 -5.507812 C 9.316406 -5.667969 8.828125 -5.871094 8.300781 -6.074219 C 8.101562 -6.15625 7.9375 -6.277344 7.734375 -6.398438 C 7.128906 -6.722656 6.722656 -7.289062 6.238281 -7.777344 C 6.074219 -8.019531 5.914062 -8.261719 5.710938 -8.503906 C 5.589844 -8.625 5.46875 -8.828125 5.222656 -8.746094 C 4.980469 -8.707031 4.777344 -8.625 4.578125 -8.421875 C 4.292969 -8.140625 4.007812 -7.855469 3.683594 -7.613281 C 3.039062 -7.167969 2.46875 -6.5625 1.863281 -6.074219 C 1.660156 -5.914062 1.578125 -5.667969 1.660156 -5.425781 C 1.78125 -5.144531 1.863281 -4.820312 2.023438 -4.578125 C 2.550781 -3.683594 3.117188 -2.835938 3.886719 -2.144531 C 4.128906 -1.902344 4.375 -1.699219 4.65625 -1.5 C 4.859375 -1.335938 5.144531 -1.175781 5.386719 -1.011719 C 6.113281 -0.484375 6.925781 -0.121094 7.816406 0.121094 C 8.667969 0.324219 9.515625 0.527344 10.449219 0.484375 Z M 10.449219 0.484375 "/></g></g></g><g fill="#ffffff" fill-opacity="1"><g transform="translate(149.267532, 262.637622)"><g><path d="M 21.34375 -15.066406 C 21.382812 -16.5625 21.179688 -18.023438 20.898438 -19.480469 C 20.734375 -20.371094 20.53125 -21.261719 20.328125 -22.152344 C 20.046875 -23.609375 19.359375 -24.867188 18.46875 -26.039062 C 18.0625 -26.566406 17.617188 -27.09375 17.007812 -27.5 C 16.359375 -27.902344 15.632812 -28.226562 14.902344 -28.589844 C 14.902344 -28.589844 14.863281 -28.589844 14.863281 -28.632812 C 14.335938 -28.753906 13.851562 -28.875 13.324219 -28.957031 C 12.515625 -29.039062 11.703125 -28.996094 10.894531 -28.996094 C 10.328125 -28.957031 9.71875 -28.914062 9.152344 -28.714844 C 8.300781 -28.429688 7.453125 -28.105469 6.722656 -27.539062 C 6.15625 -27.09375 5.507812 -26.6875 5.023438 -26.121094 C 4.453125 -25.433594 4.007812 -24.703125 3.5625 -23.933594 C 3.28125 -23.367188 3.117188 -22.761719 2.914062 -22.191406 C 2.429688 -20.734375 2.144531 -19.277344 1.984375 -17.777344 C 1.902344 -17.128906 1.863281 -16.484375 1.824219 -15.875 C 1.78125 -15.023438 1.699219 -14.175781 1.660156 -13.324219 C 1.621094 -12.390625 1.660156 -11.460938 1.863281 -10.53125 C 1.863281 -10.367188 1.902344 -10.207031 1.902344 -10.042969 C 1.984375 -9.4375 2.023438 -8.867188 2.066406 -8.261719 C 2.1875 -7.410156 2.429688 -6.640625 2.714844 -5.871094 C 3.238281 -4.375 4.050781 -2.996094 5.101562 -1.824219 C 5.265625 -1.660156 5.46875 -1.5 5.628906 -1.335938 C 5.832031 -1.214844 5.992188 -1.054688 6.15625 -0.929688 C 6.722656 -0.484375 7.332031 -0.160156 7.976562 0 C 9.03125 0.324219 10.125 0.445312 11.21875 0.484375 C 12.148438 0.484375 13.082031 0.484375 13.929688 0.0390625 C 14.253906 -0.0820312 14.539062 -0.203125 14.863281 -0.324219 C 15.023438 -0.40625 15.1875 -0.527344 15.347656 -0.648438 C 15.550781 -0.808594 15.753906 -0.972656 15.957031 -1.09375 C 16.644531 -1.578125 17.292969 -2.066406 17.738281 -2.792969 C 18.101562 -3.363281 18.507812 -3.929688 18.792969 -4.535156 C 19.316406 -5.546875 19.761719 -6.5625 20.085938 -7.652344 C 20.53125 -9.03125 20.9375 -10.40625 21.097656 -11.867188 C 21.140625 -12.230469 21.097656 -12.59375 21.222656 -12.960938 C 21.34375 -13.363281 21.300781 -13.808594 21.34375 -14.214844 C 21.34375 -14.5 21.34375 -14.78125 21.34375 -15.066406 Z M 6.964844 -13.851562 C 6.882812 -15.144531 6.964844 -16.402344 7.25 -17.65625 C 7.613281 -19.195312 8.222656 -20.652344 9.234375 -21.910156 C 9.800781 -22.558594 10.570312 -22.960938 11.421875 -22.960938 C 12.269531 -23.003906 13.039062 -22.71875 13.6875 -22.234375 C 13.769531 -22.152344 13.851562 -22.113281 13.890625 -21.992188 C 14.335938 -21.34375 14.699219 -20.613281 14.945312 -19.84375 C 15.269531 -18.667969 15.511719 -17.453125 15.632812 -16.28125 C 15.671875 -15.226562 15.632812 -14.214844 15.589844 -13.203125 C 15.589844 -12.554688 15.550781 -11.90625 15.429688 -11.300781 C 15.226562 -9.921875 14.945312 -8.546875 14.457031 -7.207031 C 14.253906 -6.640625 13.929688 -6.15625 13.40625 -5.914062 C 12.757812 -5.546875 12.027344 -5.304688 11.257812 -5.46875 C 10.8125 -5.546875 10.367188 -5.628906 9.921875 -5.75 C 9.03125 -5.992188 8.464844 -6.5625 8.019531 -7.332031 C 7.574219 -8.261719 7.371094 -9.191406 7.207031 -10.164062 C 7.007812 -11.421875 6.882812 -12.636719 6.964844 -13.851562 Z M 6.964844 -13.851562 "/></g></g></g><g fill="#ffffff" fill-opacity="1"><g transform="translate(172.268087, 262.637622)"><g><path d="M 6.964844 -14.621094 C 7.007812 -14.621094 7.007812 -14.660156 7.046875 -14.660156 C 7.046875 -14.621094 7.085938 -14.621094 7.085938 -14.578125 C 7.410156 -13.730469 7.976562 -13 8.421875 -12.230469 C 9.03125 -11.136719 9.679688 -10.085938 10.328125 -8.992188 C 10.8125 -8.222656 11.257812 -7.492188 11.746094 -6.761719 C 12.269531 -5.953125 12.839844 -5.222656 13.242188 -4.414062 C 13.484375 -3.886719 13.730469 -3.402344 13.972656 -2.914062 C 14.5 -2.066406 15.066406 -1.214844 15.589844 -0.324219 C 15.714844 -0.160156 15.875 0 15.996094 0.160156 C 16.117188 0.242188 16.28125 0.285156 16.359375 0.285156 C 16.886719 0.285156 17.414062 0.242188 17.941406 0.242188 C 18.34375 0.203125 18.792969 0.121094 19.238281 0.160156 C 19.683594 0.160156 20.007812 0 20.328125 -0.363281 C 20.453125 -0.527344 20.53125 -0.648438 20.53125 -0.890625 C 20.492188 -1.660156 20.492188 -2.46875 20.492188 -3.238281 C 20.410156 -4.898438 20.328125 -6.519531 20.328125 -8.179688 C 20.289062 -10.8125 20.328125 -13.484375 20.289062 -16.117188 C 20.289062 -18.425781 20.25 -20.734375 20.167969 -23.003906 C 20.128906 -24.703125 19.925781 -26.40625 19.964844 -28.105469 C 19.964844 -28.308594 19.84375 -28.46875 19.683594 -28.550781 C 19.601562 -28.589844 19.519531 -28.632812 19.398438 -28.632812 C 19.113281 -28.753906 18.75 -28.714844 18.425781 -28.714844 C 17.738281 -28.753906 17.007812 -28.792969 16.320312 -28.835938 C 15.957031 -28.835938 15.632812 -28.792969 15.308594 -28.671875 C 15.023438 -28.550781 14.863281 -28.429688 14.863281 -28.105469 C 14.863281 -26.929688 14.863281 -25.757812 14.902344 -24.621094 C 14.945312 -23.285156 15.105469 -21.949219 15.105469 -20.613281 C 15.144531 -17.820312 15.144531 -15.023438 15.144531 -12.269531 C 15.144531 -12.191406 15.105469 -12.109375 15.105469 -12.027344 C 15.023438 -12.070312 14.984375 -12.109375 14.984375 -12.148438 C 14.417969 -13.160156 13.808594 -14.175781 13.285156 -15.1875 C 12.917969 -15.792969 12.636719 -16.402344 12.3125 -17.007812 C 11.300781 -18.871094 10.285156 -20.734375 9.394531 -22.636719 C 8.828125 -23.8125 8.179688 -24.988281 7.695312 -26.242188 C 7.453125 -26.890625 7.085938 -27.5 6.804688 -28.144531 C 6.683594 -28.46875 6.4375 -28.671875 6.113281 -28.714844 C 5.628906 -28.753906 5.144531 -28.792969 4.65625 -28.835938 C 4.375 -28.835938 4.089844 -28.835938 3.847656 -28.835938 C 3.441406 -28.835938 3.039062 -28.835938 2.59375 -28.835938 C 2.511719 -28.835938 2.390625 -28.835938 2.308594 -28.792969 C 1.902344 -28.550781 1.621094 -28.226562 1.621094 -27.699219 C 1.621094 -27.457031 1.621094 -27.253906 1.660156 -27.054688 C 1.660156 -26.808594 1.699219 -26.566406 1.742188 -26.285156 C 1.742188 -25.269531 1.78125 -24.21875 1.78125 -23.164062 C 1.78125 -20.167969 1.78125 -17.210938 1.78125 -14.253906 C 1.824219 -12.714844 1.863281 -11.175781 1.902344 -9.679688 C 1.902344 -6.761719 1.863281 -3.808594 1.863281 -0.929688 C 1.863281 -0.730469 1.863281 -0.566406 1.902344 -0.363281 C 1.945312 -0.0390625 2.1875 0.203125 2.511719 0.203125 C 3.484375 0.242188 4.453125 0.363281 5.425781 0.285156 C 5.792969 0.242188 6.113281 0.160156 6.4375 0 C 6.761719 -0.160156 6.925781 -0.527344 6.925781 -0.890625 C 6.882812 -1.902344 6.84375 -2.914062 6.84375 -3.929688 C 6.84375 -5.265625 6.925781 -6.640625 6.925781 -7.976562 C 6.964844 -10.085938 6.964844 -12.230469 6.964844 -14.335938 C 6.964844 -14.417969 6.964844 -14.5 6.964844 -14.621094 Z M 6.964844 -14.621094 "/></g></g></g><g fill="#ffffff" fill-opacity="1"><g transform="translate(194.418261, 262.637622)"><g><path d="M 19.964844 0.363281 C 20.25 0.445312 20.53125 0.363281 20.816406 0.285156 C 21.179688 0.203125 21.503906 -0.242188 21.464844 -0.609375 C 21.382812 -0.890625 21.300781 -1.175781 21.222656 -1.457031 C 21.097656 -1.902344 20.976562 -2.308594 20.855469 -2.714844 C 20.734375 -3.238281 20.652344 -3.765625 20.53125 -4.253906 C 20.453125 -4.617188 20.371094 -4.941406 20.289062 -5.304688 C 20.207031 -5.914062 20.085938 -6.5625 19.964844 -7.167969 C 19.722656 -8.222656 19.4375 -9.316406 19.15625 -10.367188 C 18.628906 -12.3125 18.101562 -14.296875 17.617188 -16.238281 C 17.375 -17.089844 17.128906 -17.980469 16.886719 -18.792969 C 16.605469 -19.84375 16.238281 -20.855469 15.914062 -21.867188 C 15.753906 -22.515625 15.550781 -23.125 15.429688 -23.773438 C 15.269531 -24.5 15.144531 -25.269531 14.863281 -25.960938 C 14.824219 -26.082031 14.824219 -26.203125 14.78125 -26.324219 C 14.660156 -26.851562 14.539062 -27.375 14.375 -27.902344 C 14.253906 -28.347656 14.054688 -28.550781 13.566406 -28.511719 C 13.324219 -28.46875 13.082031 -28.511719 12.839844 -28.550781 C 12.554688 -28.589844 12.269531 -28.550781 11.988281 -28.511719 C 11.339844 -28.429688 10.652344 -28.308594 9.960938 -28.226562 C 9.597656 -28.1875 9.234375 -28.144531 8.867188 -28.105469 C 8.667969 -28.105469 8.503906 -27.984375 8.421875 -27.78125 C 8.261719 -27.5 8.101562 -27.214844 8.019531 -26.929688 C 7.734375 -25.960938 7.53125 -25.027344 7.289062 -24.054688 C 7.207031 -23.730469 7.167969 -23.40625 7.046875 -23.125 C 6.601562 -21.546875 6.15625 -19.964844 5.710938 -18.386719 C 5.347656 -17.171875 4.980469 -15.996094 4.617188 -14.78125 C 4.253906 -13.445312 3.847656 -12.148438 3.484375 -10.851562 C 3.238281 -9.921875 3.039062 -8.992188 2.875 -8.058594 C 2.714844 -7.167969 2.511719 -6.316406 2.269531 -5.46875 C 2.066406 -4.898438 1.863281 -4.292969 1.660156 -3.683594 C 1.417969 -2.753906 1.175781 -1.78125 0.890625 -0.851562 C 0.769531 -0.40625 0.851562 -0.0820312 1.253906 0.160156 C 1.375 0.242188 1.5 0.324219 1.660156 0.324219 C 1.945312 0.363281 2.226562 0.40625 2.550781 0.40625 C 3.605469 0.363281 4.65625 0.285156 5.710938 0.242188 C 6.035156 0.242188 6.316406 0.203125 6.640625 0.160156 C 6.882812 0.160156 7.085938 0 7.167969 -0.242188 C 7.289062 -0.527344 7.410156 -0.808594 7.53125 -1.09375 C 7.777344 -1.578125 7.898438 -2.105469 7.976562 -2.632812 C 8.058594 -3.199219 8.058594 -3.078125 8.546875 -3.078125 C 9.273438 -3.078125 10.003906 -3.078125 10.730469 -3.117188 C 11.300781 -3.160156 11.90625 -3.238281 12.515625 -3.28125 C 13.082031 -3.320312 13.648438 -3.320312 14.214844 -3.320312 C 14.375 -3.363281 14.457031 -3.28125 14.5 -3.117188 C 14.5 -2.875 14.578125 -2.632812 14.621094 -2.390625 C 14.78125 -1.539062 15.144531 -0.730469 15.511719 0.0820312 C 15.589844 0.203125 15.714844 0.324219 15.875 0.40625 C 16.199219 0.648438 16.5625 0.648438 16.929688 0.609375 C 17.453125 0.566406 17.941406 0.527344 18.425781 0.484375 C 18.589844 0.484375 18.75 0.445312 18.914062 0.445312 C 19.277344 0.40625 19.640625 0.40625 19.964844 0.363281 Z M 11.21875 -17.453125 C 11.339844 -17.171875 11.378906 -16.847656 11.5 -16.5625 C 11.703125 -15.957031 11.90625 -15.390625 12.109375 -14.824219 C 12.472656 -13.769531 12.714844 -12.636719 12.960938 -11.542969 C 13.039062 -11.175781 13.203125 -10.851562 13.285156 -10.488281 C 13.324219 -10.40625 13.324219 -10.367188 13.363281 -10.285156 C 13.484375 -9.882812 13.484375 -9.882812 13.039062 -9.839844 C 12.269531 -9.71875 11.5 -9.71875 10.730469 -9.636719 C 10.40625 -9.636719 10.125 -9.636719 9.800781 -9.636719 C 9.597656 -9.636719 9.558594 -9.636719 9.597656 -9.882812 C 9.71875 -10.652344 9.839844 -11.421875 10.003906 -12.191406 C 10.285156 -13.6875 10.609375 -15.1875 10.933594 -16.644531 C 10.976562 -16.929688 11.054688 -17.210938 11.136719 -17.453125 C 11.175781 -17.453125 11.21875 -17.453125 11.21875 -17.453125 Z M 11.21875 -17.453125 "/></g></g></g><g fill="#ffffff" fill-opacity="1"><g transform="translate(216.730414, 262.637622)"><g><path d="M 1.699219 -11.097656 C 1.699219 -9.113281 1.660156 -7.085938 1.699219 -5.101562 C 1.699219 -3.5625 1.742188 -2.023438 1.78125 -0.527344 C 1.824219 0.203125 2.023438 0.363281 2.714844 0.363281 C 3.644531 0.324219 4.578125 0.160156 5.507812 0.203125 C 6.035156 0.203125 6.519531 0.160156 7.046875 0.160156 C 7.976562 0.203125 8.910156 0.242188 9.839844 0.285156 C 11.175781 0.324219 12.515625 0.285156 13.808594 0.203125 C 14.054688 0.160156 14.335938 0.121094 14.539062 0.0390625 C 14.902344 -0.0390625 14.984375 -0.160156 15.023438 -0.527344 C 15.023438 -0.609375 15.023438 -0.648438 15.023438 -0.769531 C 15.066406 -1.457031 15.066406 -2.144531 15.105469 -2.875 C 15.144531 -3.363281 15.144531 -3.808594 15.144531 -4.292969 C 15.144531 -4.65625 14.945312 -4.980469 14.699219 -5.0625 C 14.457031 -5.101562 14.253906 -5.144531 14.011719 -5.144531 C 13.484375 -5.183594 12.917969 -5.183594 12.351562 -5.222656 C 10.851562 -5.265625 9.355469 -5.46875 7.855469 -5.46875 C 7.695312 -5.46875 7.574219 -5.46875 7.410156 -5.46875 C 7.25 -5.46875 7.207031 -5.507812 7.207031 -5.667969 C 7.207031 -6.359375 7.25 -7.085938 7.25 -7.816406 C 7.207031 -10.042969 7.207031 -12.3125 7.167969 -14.539062 C 7.128906 -15.632812 7.046875 -16.765625 7.085938 -17.859375 C 7.128906 -20.898438 7.007812 -23.894531 6.882812 -26.929688 C 6.882812 -27.375 6.882812 -27.820312 6.882812 -28.269531 C 6.882812 -28.511719 6.722656 -28.714844 6.4375 -28.714844 C 6.277344 -28.753906 6.113281 -28.753906 5.914062 -28.753906 C 4.820312 -28.714844 3.726562 -28.714844 2.59375 -28.671875 C 2.066406 -28.671875 1.824219 -28.632812 1.78125 -27.863281 C 1.742188 -27.175781 1.742188 -26.527344 1.742188 -25.796875 C 1.699219 -25.390625 1.699219 -24.988281 1.660156 -24.582031 C 1.660156 -23.894531 1.621094 -23.207031 1.621094 -22.558594 C 1.621094 -21.585938 1.660156 -20.613281 1.699219 -19.640625 C 1.699219 -16.808594 1.699219 -13.929688 1.699219 -11.097656 Z M 1.699219 -11.097656 "/></g></g></g><g fill="#ffffff" fill-opacity="1"><g transform="translate(233.494903, 262.637622)"><g/></g></g><g fill="#ffffff" fill-opacity="1"><g transform="translate(241.593683, 262.637622)"><g><path d="M 8.300781 0.160156 C 8.585938 0.160156 8.867188 0.121094 9.152344 0.160156 C 10.246094 0.203125 11.300781 0.160156 12.351562 -0.0390625 C 12.917969 -0.121094 13.445312 -0.242188 13.929688 -0.484375 C 14.011719 -0.566406 14.132812 -0.566406 14.214844 -0.609375 C 15.347656 -1.132812 16.359375 -1.902344 17.292969 -2.753906 C 17.578125 -2.996094 17.777344 -3.363281 18.023438 -3.644531 C 18.546875 -4.210938 18.914062 -4.859375 19.238281 -5.546875 C 19.601562 -6.359375 19.882812 -7.207031 20.128906 -8.058594 C 20.328125 -8.746094 20.453125 -9.476562 20.613281 -10.207031 C 20.898438 -11.460938 21.019531 -12.757812 21.019531 -14.054688 C 21.019531 -14.902344 20.9375 -15.792969 20.898438 -16.644531 C 20.855469 -17.414062 20.816406 -18.144531 20.652344 -18.871094 C 20.574219 -19.4375 20.492188 -20.007812 20.453125 -20.574219 C 20.410156 -21.421875 20.167969 -22.191406 19.84375 -22.960938 C 19.398438 -23.851562 18.832031 -24.664062 18.265625 -25.433594 C 17.820312 -26 17.332031 -26.484375 16.726562 -26.808594 C 16.523438 -26.929688 16.320312 -27.054688 16.160156 -27.175781 C 15.550781 -27.699219 14.863281 -28.066406 14.214844 -28.46875 C 13.566406 -28.835938 12.917969 -28.996094 12.191406 -28.914062 C 11.703125 -28.835938 11.21875 -28.792969 10.730469 -28.875 C 10.570312 -28.914062 10.449219 -28.914062 10.285156 -28.914062 C 9.191406 -28.875 8.101562 -28.835938 7.007812 -28.835938 C 5.992188 -28.835938 5.023438 -28.875 4.050781 -28.875 C 3.5625 -28.875 3.078125 -28.792969 2.59375 -28.714844 C 2.226562 -28.671875 1.984375 -28.429688 1.945312 -28.066406 C 1.902344 -27.699219 1.863281 -27.335938 1.863281 -26.972656 C 1.863281 -26.527344 1.863281 -26.082031 1.824219 -25.636719 C 1.742188 -25.390625 1.78125 -25.109375 1.78125 -24.867188 C 1.78125 -24.257812 1.863281 -23.652344 1.863281 -23.003906 C 1.863281 -22.273438 1.78125 -21.503906 1.78125 -20.734375 C 1.660156 -17.859375 1.621094 -14.945312 1.699219 -12.070312 C 1.742188 -10.8125 1.742188 -9.558594 1.78125 -8.300781 C 1.824219 -6.761719 1.863281 -5.265625 1.945312 -3.765625 C 1.984375 -2.671875 2.066406 -1.621094 2.144531 -0.566406 C 2.1875 -0.242188 2.390625 0 2.714844 0.0390625 C 2.914062 0.0820312 3.117188 0.0820312 3.320312 0.0820312 C 3.847656 0.0820312 4.414062 0.0820312 4.898438 0.0820312 C 5.425781 0.121094 5.914062 0.160156 6.4375 0.160156 C 7.046875 0.160156 7.695312 0.160156 8.300781 0.160156 Z M 8.058594 -14.054688 C 8.058594 -14.902344 8.058594 -15.714844 8.058594 -16.5625 C 8.019531 -18.265625 7.976562 -20.007812 7.9375 -21.707031 C 7.9375 -21.789062 7.9375 -21.867188 7.976562 -21.949219 C 7.976562 -21.992188 8.058594 -22.070312 8.101562 -22.113281 C 8.261719 -22.152344 8.421875 -22.152344 8.585938 -22.152344 C 9.070312 -22.191406 9.558594 -22.191406 10.042969 -22.191406 C 10.652344 -22.191406 11.21875 -22.070312 11.664062 -21.585938 C 11.824219 -21.464844 11.988281 -21.34375 12.148438 -21.261719 C 12.839844 -20.855469 13.285156 -20.207031 13.527344 -19.480469 C 13.851562 -18.546875 14.132812 -17.617188 14.335938 -16.644531 C 14.621094 -15.589844 14.742188 -14.539062 14.699219 -13.484375 C 14.699219 -13.160156 14.699219 -12.796875 14.742188 -12.472656 C 14.742188 -11.90625 14.699219 -11.421875 14.578125 -10.894531 C 14.335938 -10.125 14.175781 -9.394531 13.851562 -8.707031 C 13.40625 -7.898438 12.796875 -7.25 11.988281 -6.804688 C 11.300781 -6.480469 10.570312 -6.359375 9.839844 -6.238281 C 9.355469 -6.195312 8.867188 -6.113281 8.382812 -6.074219 C 8.058594 -6.074219 8.019531 -6.113281 8.019531 -6.4375 C 8.019531 -7.777344 8.019531 -9.152344 8.019531 -10.53125 C 8.019531 -11.703125 8.058594 -12.878906 8.058594 -14.054688 Z M 8.058594 -14.054688 "/></g></g></g><g fill="#ffffff" fill-opacity="1"><g transform="translate(263.41991, 262.637622)"><g><path d="M 6.722656 -25.269531 C 6.683594 -25.269531 6.683594 -25.269531 6.683594 -25.269531 C 6.683594 -26.242188 6.683594 -27.253906 6.683594 -28.226562 C 6.683594 -28.714844 6.480469 -28.875 5.992188 -28.835938 C 5.667969 -28.792969 5.347656 -28.792969 5.0625 -28.792969 C 4.496094 -28.792969 3.886719 -28.792969 3.320312 -28.792969 C 2.957031 -28.792969 2.632812 -28.753906 2.269531 -28.714844 C 1.945312 -28.671875 1.78125 -28.511719 1.742188 -28.1875 C 1.699219 -27.699219 1.660156 -27.214844 1.660156 -26.730469 C 1.660156 -25.960938 1.699219 -25.191406 1.699219 -24.421875 C 1.699219 -23.367188 1.699219 -22.273438 1.699219 -21.179688 C 1.699219 -20.734375 1.742188 -20.289062 1.742188 -19.84375 C 1.742188 -17.617188 1.78125 -15.390625 1.742188 -13.160156 C 1.742188 -11.542969 1.742188 -9.882812 1.660156 -8.222656 C 1.621094 -6.5625 1.621094 -4.859375 1.660156 -3.160156 C 1.699219 -2.347656 1.660156 -1.5 1.660156 -0.6875 C 1.660156 -0.445312 1.621094 -0.242188 1.621094 0 C 1.621094 0.324219 1.742188 0.40625 2.066406 0.445312 C 2.144531 0.445312 2.226562 0.445312 2.308594 0.445312 C 3.523438 0.445312 4.738281 0.445312 5.953125 0.40625 C 6.15625 0.40625 6.398438 0.285156 6.480469 0 C 6.480469 -0.0820312 6.519531 -0.203125 6.519531 -0.324219 C 6.5625 -1.660156 6.601562 -3.039062 6.640625 -4.414062 C 6.640625 -4.738281 6.683594 -5.101562 6.683594 -5.425781 C 6.722656 -6.035156 6.761719 -6.640625 6.761719 -7.25 C 6.804688 -8.746094 6.804688 -10.246094 6.804688 -11.703125 C 6.804688 -12.230469 6.761719 -12.757812 6.761719 -13.285156 C 6.722656 -14.011719 6.683594 -14.78125 6.683594 -15.511719 C 6.683594 -16.238281 6.722656 -16.96875 6.722656 -17.65625 C 6.722656 -18.953125 6.683594 -20.207031 6.683594 -21.464844 C 6.683594 -21.746094 6.722656 -22.03125 6.722656 -22.355469 C 6.722656 -23.328125 6.722656 -24.300781 6.722656 -25.269531 Z M 6.722656 -25.269531 "/></g></g></g><g fill="#ffffff" fill-opacity="1"><g transform="translate(271.84265, 262.637622)"><g><path d="M 1.984375 -13.648438 C 1.945312 -12.714844 1.902344 -11.175781 1.863281 -9.636719 C 1.824219 -7.9375 1.78125 -6.277344 1.742188 -4.578125 C 1.699219 -3.402344 1.699219 -2.1875 1.660156 -0.972656 C 1.621094 -0.527344 1.863281 -0.203125 2.066406 0.121094 C 2.105469 0.203125 2.226562 0.285156 2.347656 0.324219 C 2.753906 0.40625 3.160156 0.566406 3.523438 0.566406 C 4.332031 0.609375 5.144531 0.609375 5.914062 0.566406 C 6.683594 0.527344 7.453125 0.445312 8.222656 0.40625 C 9.273438 0.40625 10.40625 0.40625 11.460938 0.363281 C 12.191406 0.324219 12.878906 0.242188 13.566406 0.242188 C 14.945312 0.203125 16.28125 0.203125 17.65625 0.160156 C 17.859375 0.160156 18.0625 0.160156 18.183594 0 C 18.46875 -0.324219 18.667969 -0.648438 18.667969 -1.09375 C 18.710938 -2.023438 18.546875 -2.957031 18.507812 -3.886719 C 18.507812 -4.210938 18.507812 -4.617188 18.144531 -4.859375 C 18.144531 -4.859375 18.144531 -4.898438 18.101562 -4.941406 C 17.898438 -5.304688 17.496094 -5.507812 17.089844 -5.425781 C 16.929688 -5.425781 16.765625 -5.386719 16.605469 -5.425781 C 16.117188 -5.425781 15.589844 -5.46875 15.105469 -5.46875 C 14.335938 -5.425781 13.566406 -5.347656 12.796875 -5.347656 C 11.421875 -5.304688 10.042969 -5.304688 8.707031 -5.304688 C 8.34375 -5.265625 8.34375 -5.304688 8.34375 -5.628906 C 8.34375 -6.480469 8.34375 -7.332031 8.34375 -8.140625 C 8.300781 -9.636719 8.300781 -11.097656 8.300781 -12.554688 C 8.300781 -13.082031 8.34375 -13.082031 8.867188 -13.082031 C 9.800781 -13.160156 10.730469 -13.203125 11.664062 -13.285156 C 12.515625 -13.324219 13.324219 -13.445312 14.175781 -13.527344 C 14.539062 -13.527344 14.945312 -13.527344 15.347656 -13.527344 C 15.671875 -13.566406 15.875 -13.730469 15.875 -14.09375 C 15.875 -15.023438 15.875 -15.914062 15.835938 -16.808594 C 15.835938 -17.210938 15.792969 -17.617188 15.753906 -18.023438 C 15.714844 -18.304688 15.714844 -18.304688 15.429688 -18.304688 C 15.144531 -18.304688 14.902344 -18.304688 14.621094 -18.304688 C 13.527344 -18.304688 12.390625 -18.34375 11.257812 -18.304688 C 10.367188 -18.304688 9.476562 -18.265625 8.546875 -18.265625 C 8.261719 -18.265625 8.222656 -18.265625 8.222656 -18.589844 C 8.261719 -19.722656 8.300781 -20.855469 8.300781 -22.03125 C 8.34375 -22.273438 8.34375 -22.273438 8.585938 -22.316406 C 9.515625 -22.4375 10.488281 -22.476562 11.421875 -22.515625 C 12.554688 -22.515625 13.648438 -22.515625 14.78125 -22.558594 C 15.589844 -22.597656 16.441406 -22.636719 17.253906 -22.679688 C 17.578125 -22.71875 17.898438 -22.761719 18.101562 -23.042969 C 18.265625 -23.285156 18.386719 -23.570312 18.34375 -23.851562 C 18.304688 -25.109375 18.265625 -26.363281 18.222656 -27.621094 C 18.183594 -28.308594 17.820312 -28.792969 17.089844 -28.835938 C 16.96875 -28.835938 16.808594 -28.835938 16.726562 -28.792969 C 16.320312 -28.714844 15.957031 -28.753906 15.589844 -28.753906 C 14.824219 -28.753906 14.054688 -28.792969 13.324219 -28.792969 C 12.839844 -28.792969 12.390625 -28.835938 11.945312 -28.835938 C 10.246094 -28.835938 8.503906 -28.792969 6.804688 -28.792969 C 6.683594 -28.792969 6.5625 -28.753906 6.398438 -28.753906 C 5.667969 -28.753906 4.898438 -28.753906 4.128906 -28.753906 C 3.765625 -28.753906 3.363281 -28.753906 2.996094 -28.753906 C 2.429688 -28.671875 2.144531 -28.390625 2.144531 -27.820312 C 2.105469 -27.660156 2.144531 -27.539062 2.144531 -27.417969 C 2.144531 -26.851562 2.1875 -26.285156 2.1875 -25.714844 C 2.105469 -21.910156 2.066406 -18.101562 1.984375 -13.648438 Z M 1.984375 -13.648438 "/></g></g></g><g fill="#ffffff" fill-opacity="1"><g transform="translate(292.170604, 262.637622)"><g><path d="M 10.894531 -13 C 10.933594 -13 10.933594 -13 10.933594 -13 C 10.933594 -13.121094 10.933594 -13.242188 10.976562 -13.363281 C 11.054688 -15.308594 11.136719 -17.253906 11.175781 -19.238281 C 11.21875 -20.410156 11.175781 -21.625 11.175781 -22.839844 C 11.175781 -22.960938 11.175781 -23.082031 11.175781 -23.164062 C 11.175781 -23.328125 11.21875 -23.367188 11.378906 -23.367188 C 11.582031 -23.367188 11.824219 -23.367188 12.027344 -23.367188 C 13.121094 -23.40625 14.253906 -23.53125 15.390625 -23.40625 C 15.46875 -23.40625 15.550781 -23.40625 15.632812 -23.40625 C 15.957031 -23.449219 16.078125 -23.609375 16.117188 -23.933594 C 16.117188 -24.21875 16.117188 -24.5 16.117188 -24.746094 C 16.160156 -25.878906 16.28125 -26.972656 16.238281 -28.066406 C 16.238281 -28.511719 16.117188 -28.589844 15.714844 -28.589844 C 14.984375 -28.589844 14.253906 -28.550781 13.527344 -28.550781 C 10.488281 -28.511719 7.492188 -28.511719 4.453125 -28.714844 C 3.484375 -28.753906 2.46875 -28.714844 1.5 -28.671875 C 1.175781 -28.632812 1.011719 -28.511719 0.972656 -28.144531 C 0.851562 -26.972656 0.808594 -25.796875 0.808594 -24.621094 C 0.808594 -24.257812 0.851562 -23.933594 0.890625 -23.609375 C 0.929688 -23.40625 1.054688 -23.285156 1.214844 -23.285156 C 1.335938 -23.285156 1.457031 -23.285156 1.578125 -23.285156 C 2.957031 -23.40625 4.332031 -23.367188 5.667969 -23.367188 C 5.914062 -23.367188 5.914062 -23.367188 5.914062 -23.125 C 5.953125 -22.597656 5.953125 -22.070312 5.953125 -21.503906 C 5.953125 -20.128906 5.953125 -18.75 5.871094 -17.332031 C 5.75 -15.308594 5.667969 -13.285156 5.667969 -11.300781 C 5.628906 -9.070312 5.710938 -6.882812 5.710938 -4.699219 C 5.710938 -3.320312 5.710938 -1.945312 5.710938 -0.566406 C 5.710938 -0.0820312 5.992188 0.203125 6.480469 0.285156 C 6.683594 0.324219 6.925781 0.324219 7.167969 0.363281 C 8.222656 0.527344 9.234375 0.445312 10.246094 0.242188 C 10.488281 0.160156 10.691406 0 10.691406 -0.285156 C 10.730469 -1.578125 10.8125 -2.875 10.8125 -4.171875 C 10.851562 -7.128906 10.894531 -10.042969 10.894531 -13 Z M 10.894531 -13 "/></g></g></g><g fill="#ffffff" fill-opacity="1"><g transform="translate(96.642931, 285.418159)"><g><path d="M 8.71875 -9.8125 C 8.894531 -9.8125 9.03125 -9.757812 9.125 -9.65625 C 9.226562 -9.550781 9.28125 -9.410156 9.28125 -9.234375 L 9.28125 -0.515625 C 9.28125 -0.335938 9.226562 -0.195312 9.125 -0.09375 C 9.03125 0.0078125 8.894531 0.0625 8.71875 0.0625 C 8.550781 0.0625 8.414062 0.0078125 8.3125 -0.09375 C 8.207031 -0.195312 8.15625 -0.335938 8.15625 -0.515625 L 8.15625 -4.46875 L 2.328125 -4.46875 L 2.328125 -0.515625 C 2.328125 -0.335938 2.273438 -0.195312 2.171875 -0.09375 C 2.066406 0.0078125 1.925781 0.0625 1.75 0.0625 C 1.582031 0.0625 1.445312 0.0078125 1.34375 -0.09375 C 1.25 -0.195312 1.203125 -0.335938 1.203125 -0.515625 L 1.203125 -9.234375 C 1.203125 -9.410156 1.25 -9.550781 1.34375 -9.65625 C 1.445312 -9.757812 1.582031 -9.8125 1.75 -9.8125 C 1.925781 -9.8125 2.066406 -9.757812 2.171875 -9.65625 C 2.273438 -9.550781 2.328125 -9.410156 2.328125 -9.234375 L 2.328125 -5.4375 L 8.15625 -5.4375 L 8.15625 -9.234375 C 8.15625 -9.410156 8.207031 -9.550781 8.3125 -9.65625 C 8.414062 -9.757812 8.550781 -9.8125 8.71875 -9.8125 Z M 8.71875 -9.8125 "/></g></g></g><g fill="#ffffff" fill-opacity="1"><g transform="translate(113.159302, 285.418159)"><g><path d="M 1.78125 0 C 1.601562 0 1.460938 -0.046875 1.359375 -0.140625 C 1.253906 -0.242188 1.203125 -0.378906 1.203125 -0.546875 L 1.203125 -9.203125 C 1.203125 -9.359375 1.253906 -9.488281 1.359375 -9.59375 C 1.460938 -9.695312 1.601562 -9.75 1.78125 -9.75 L 6.953125 -9.75 C 7.117188 -9.75 7.25 -9.707031 7.34375 -9.625 C 7.4375 -9.539062 7.484375 -9.425781 7.484375 -9.28125 C 7.484375 -9.132812 7.4375 -9.019531 7.34375 -8.9375 C 7.25 -8.851562 7.117188 -8.8125 6.953125 -8.8125 L 2.328125 -8.8125 L 2.328125 -5.421875 L 6.671875 -5.421875 C 6.835938 -5.421875 6.96875 -5.378906 7.0625 -5.296875 C 7.15625 -5.210938 7.203125 -5.097656 7.203125 -4.953125 C 7.203125 -4.804688 7.15625 -4.691406 7.0625 -4.609375 C 6.96875 -4.523438 6.835938 -4.484375 6.671875 -4.484375 L 2.328125 -4.484375 L 2.328125 -0.9375 L 6.953125 -0.9375 C 7.117188 -0.9375 7.25 -0.894531 7.34375 -0.8125 C 7.4375 -0.738281 7.484375 -0.625 7.484375 -0.46875 C 7.484375 -0.320312 7.4375 -0.207031 7.34375 -0.125 C 7.25 -0.0390625 7.117188 0 6.953125 0 Z M 1.78125 0 "/></g></g></g><g fill="#ffffff" fill-opacity="1"><g transform="translate(127.241407, 285.418159)"><g><path d="M 9.59375 -0.65625 C 9.632812 -0.582031 9.65625 -0.503906 9.65625 -0.421875 C 9.65625 -0.273438 9.597656 -0.15625 9.484375 -0.0625 C 9.378906 0.0195312 9.253906 0.0625 9.109375 0.0625 C 8.878906 0.0625 8.71875 -0.046875 8.625 -0.265625 L 7.640625 -2.5 L 2.4375 -2.5 L 1.4375 -0.265625 C 1.34375 -0.046875 1.179688 0.0625 0.953125 0.0625 C 0.804688 0.0625 0.675781 0.015625 0.5625 -0.078125 C 0.457031 -0.171875 0.40625 -0.285156 0.40625 -0.421875 C 0.40625 -0.503906 0.421875 -0.582031 0.453125 -0.65625 L 4.40625 -9.4375 C 4.46875 -9.570312 4.550781 -9.671875 4.65625 -9.734375 C 4.769531 -9.796875 4.890625 -9.828125 5.015625 -9.828125 C 5.160156 -9.828125 5.285156 -9.789062 5.390625 -9.71875 C 5.503906 -9.65625 5.585938 -9.5625 5.640625 -9.4375 Z M 2.84375 -3.4375 L 7.234375 -3.4375 L 5.03125 -8.40625 Z M 2.84375 -3.4375 "/></g></g></g><g fill="#ffffff" fill-opacity="1"><g transform="translate(143.329013, 285.418159)"><g><path d="M 1.75 0 C 1.59375 0 1.460938 -0.046875 1.359375 -0.140625 C 1.253906 -0.242188 1.203125 -0.375 1.203125 -0.53125 L 1.203125 -9.234375 C 1.203125 -9.410156 1.25 -9.550781 1.34375 -9.65625 C 1.445312 -9.757812 1.585938 -9.8125 1.765625 -9.8125 C 1.941406 -9.8125 2.082031 -9.757812 2.1875 -9.65625 C 2.289062 -9.550781 2.34375 -9.410156 2.34375 -9.234375 L 2.34375 -0.96875 L 6.796875 -0.96875 C 6.960938 -0.96875 7.09375 -0.925781 7.1875 -0.84375 C 7.28125 -0.757812 7.328125 -0.640625 7.328125 -0.484375 C 7.328125 -0.328125 7.28125 -0.207031 7.1875 -0.125 C 7.09375 -0.0390625 6.960938 0 6.796875 0 Z M 1.75 0 "/></g></g></g><g fill="#ffffff" fill-opacity="1"><g transform="translate(156.830207, 285.418159)"><g><path d="M 4.140625 0.0625 C 3.960938 0.0625 3.816406 0.0078125 3.703125 -0.09375 C 3.597656 -0.195312 3.546875 -0.335938 3.546875 -0.515625 L 3.546875 -8.78125 L 0.578125 -8.78125 C 0.410156 -8.78125 0.28125 -8.820312 0.1875 -8.90625 C 0.101562 -8.988281 0.0625 -9.109375 0.0625 -9.265625 C 0.0625 -9.421875 0.101562 -9.539062 0.1875 -9.625 C 0.28125 -9.707031 0.410156 -9.75 0.578125 -9.75 L 7.671875 -9.75 C 7.835938 -9.75 7.96875 -9.707031 8.0625 -9.625 C 8.15625 -9.539062 8.203125 -9.421875 8.203125 -9.265625 C 8.203125 -9.109375 8.15625 -8.988281 8.0625 -8.90625 C 7.96875 -8.820312 7.835938 -8.78125 7.671875 -8.78125 L 4.703125 -8.78125 L 4.703125 -0.515625 C 4.703125 -0.335938 4.648438 -0.195312 4.546875 -0.09375 C 4.441406 0.0078125 4.304688 0.0625 4.140625 0.0625 Z M 4.140625 0.0625 "/></g></g></g><g fill="#ffffff" fill-opacity="1"><g transform="translate(171.133608, 285.418159)"><g><path d="M 8.71875 -9.8125 C 8.894531 -9.8125 9.03125 -9.757812 9.125 -9.65625 C 9.226562 -9.550781 9.28125 -9.410156 9.28125 -9.234375 L 9.28125 -0.515625 C 9.28125 -0.335938 9.226562 -0.195312 9.125 -0.09375 C 9.03125 0.0078125 8.894531 0.0625 8.71875 0.0625 C 8.550781 0.0625 8.414062 0.0078125 8.3125 -0.09375 C 8.207031 -0.195312 8.15625 -0.335938 8.15625 -0.515625 L 8.15625 -4.46875 L 2.328125 -4.46875 L 2.328125 -0.515625 C 2.328125 -0.335938 2.273438 -0.195312 2.171875 -0.09375 C 2.066406 0.0078125 1.925781 0.0625 1.75 0.0625 C 1.582031 0.0625 1.445312 0.0078125 1.34375 -0.09375 C 1.25 -0.195312 1.203125 -0.335938 1.203125 -0.515625 L 1.203125 -9.234375 C 1.203125 -9.410156 1.25 -9.550781 1.34375 -9.65625 C 1.445312 -9.757812 1.582031 -9.8125 1.75 -9.8125 C 1.925781 -9.8125 2.066406 -9.757812 2.171875 -9.65625 C 2.273438 -9.550781 2.328125 -9.410156 2.328125 -9.234375 L 2.328125 -5.4375 L 8.15625 -5.4375 L 8.15625 -9.234375 C 8.15625 -9.410156 8.207031 -9.550781 8.3125 -9.65625 C 8.414062 -9.757812 8.550781 -9.8125 8.71875 -9.8125 Z M 8.71875 -9.8125 "/></g></g></g><g fill="#ffffff" fill-opacity="1"><g transform="translate(187.64998, 285.418159)"><g><path d="M 7.296875 -9.59375 C 7.410156 -9.726562 7.546875 -9.796875 7.703125 -9.796875 C 7.828125 -9.796875 7.941406 -9.742188 8.046875 -9.640625 C 8.148438 -9.546875 8.203125 -9.425781 8.203125 -9.28125 C 8.203125 -9.144531 8.160156 -9.03125 8.078125 -8.9375 L 4.71875 -4.6875 L 4.71875 -0.515625 C 4.71875 -0.328125 4.660156 -0.179688 4.546875 -0.078125 C 4.441406 0.015625 4.304688 0.0625 4.140625 0.0625 C 3.984375 0.0625 3.847656 0.015625 3.734375 -0.078125 C 3.628906 -0.179688 3.578125 -0.328125 3.578125 -0.515625 L 3.578125 -4.703125 L 0.21875 -8.9375 C 0.125 -9.03125 0.078125 -9.144531 0.078125 -9.28125 C 0.078125 -9.425781 0.128906 -9.546875 0.234375 -9.640625 C 0.347656 -9.742188 0.472656 -9.796875 0.609375 -9.796875 C 0.765625 -9.796875 0.898438 -9.726562 1.015625 -9.59375 L 4.15625 -5.578125 Z M 7.296875 -9.59375 "/></g></g></g><g fill="#ffffff" fill-opacity="1"><g transform="translate(201.994865, 285.418159)"><g/></g></g><g fill="#ffffff" fill-opacity="1"><g transform="translate(211.595707, 285.418159)"><g><path d="M 1.765625 0.0625 C 1.585938 0.0625 1.445312 0.0078125 1.34375 -0.09375 C 1.25 -0.195312 1.203125 -0.335938 1.203125 -0.515625 L 1.203125 -9.203125 C 1.203125 -9.359375 1.253906 -9.488281 1.359375 -9.59375 C 1.460938 -9.695312 1.601562 -9.75 1.78125 -9.75 L 6.8125 -9.75 C 6.976562 -9.75 7.109375 -9.707031 7.203125 -9.625 C 7.296875 -9.539062 7.34375 -9.421875 7.34375 -9.265625 C 7.34375 -9.117188 7.296875 -9.003906 7.203125 -8.921875 C 7.109375 -8.835938 6.976562 -8.796875 6.8125 -8.796875 L 2.328125 -8.796875 L 2.328125 -5.4375 L 6.546875 -5.4375 C 6.710938 -5.4375 6.835938 -5.394531 6.921875 -5.3125 C 7.015625 -5.226562 7.0625 -5.109375 7.0625 -4.953125 C 7.0625 -4.804688 7.015625 -4.691406 6.921875 -4.609375 C 6.835938 -4.523438 6.710938 -4.484375 6.546875 -4.484375 L 2.328125 -4.484375 L 2.328125 -0.515625 C 2.328125 -0.335938 2.273438 -0.195312 2.171875 -0.09375 C 2.078125 0.0078125 1.941406 0.0625 1.765625 0.0625 Z M 1.765625 0.0625 "/></g></g></g><g fill="#ffffff" fill-opacity="1"><g transform="translate(225.332025, 285.418159)"><g><path d="M 5.28125 0.109375 C 4.375 0.109375 3.585938 -0.09375 2.921875 -0.5 C 2.253906 -0.90625 1.738281 -1.476562 1.375 -2.21875 C 1.019531 -2.96875 0.84375 -3.851562 0.84375 -4.875 C 0.84375 -5.894531 1.019531 -6.78125 1.375 -7.53125 C 1.726562 -8.28125 2.238281 -8.851562 2.90625 -9.25 C 3.570312 -9.65625 4.363281 -9.859375 5.28125 -9.859375 C 6.195312 -9.859375 6.988281 -9.65625 7.65625 -9.25 C 8.320312 -8.851562 8.832031 -8.28125 9.1875 -7.53125 C 9.539062 -6.78125 9.71875 -5.894531 9.71875 -4.875 C 9.71875 -3.863281 9.535156 -2.984375 9.171875 -2.234375 C 8.816406 -1.484375 8.304688 -0.90625 7.640625 -0.5 C 6.972656 -0.09375 6.1875 0.109375 5.28125 0.109375 Z M 5.28125 -0.859375 C 6.3125 -0.859375 7.113281 -1.207031 7.6875 -1.90625 C 8.269531 -2.601562 8.5625 -3.59375 8.5625 -4.875 C 8.5625 -6.164062 8.273438 -7.15625 7.703125 -7.84375 C 7.128906 -8.539062 6.320312 -8.890625 5.28125 -8.890625 C 4.25 -8.890625 3.441406 -8.539062 2.859375 -7.84375 C 2.285156 -7.144531 2 -6.15625 2 -4.875 C 2 -3.59375 2.285156 -2.601562 2.859375 -1.90625 C 3.441406 -1.207031 4.25 -0.859375 5.28125 -0.859375 Z M 5.28125 -0.859375 "/></g></g></g><g fill="#ffffff" fill-opacity="1"><g transform="translate(241.931377, 285.418159)"><g><path d="M 5.28125 0.109375 C 4.375 0.109375 3.585938 -0.09375 2.921875 -0.5 C 2.253906 -0.90625 1.738281 -1.476562 1.375 -2.21875 C 1.019531 -2.96875 0.84375 -3.851562 0.84375 -4.875 C 0.84375 -5.894531 1.019531 -6.78125 1.375 -7.53125 C 1.726562 -8.28125 2.238281 -8.851562 2.90625 -9.25 C 3.570312 -9.65625 4.363281 -9.859375 5.28125 -9.859375 C 6.195312 -9.859375 6.988281 -9.65625 7.65625 -9.25 C 8.320312 -8.851562 8.832031 -8.28125 9.1875 -7.53125 C 9.539062 -6.78125 9.71875 -5.894531 9.71875 -4.875 C 9.71875 -3.863281 9.535156 -2.984375 9.171875 -2.234375 C 8.816406 -1.484375 8.304688 -0.90625 7.640625 -0.5 C 6.972656 -0.09375 6.1875 0.109375 5.28125 0.109375 Z M 5.28125 -0.859375 C 6.3125 -0.859375 7.113281 -1.207031 7.6875 -1.90625 C 8.269531 -2.601562 8.5625 -3.59375 8.5625 -4.875 C 8.5625 -6.164062 8.273438 -7.15625 7.703125 -7.84375 C 7.128906 -8.539062 6.320312 -8.890625 5.28125 -8.890625 C 4.25 -8.890625 3.441406 -8.539062 2.859375 -7.84375 C 2.285156 -7.144531 2 -6.15625 2 -4.875 C 2 -3.59375 2.285156 -2.601562 2.859375 -1.90625 C 3.441406 -1.207031 4.25 -0.859375 5.28125 -0.859375 Z M 5.28125 -0.859375 "/></g></g></g><g fill="#ffffff" fill-opacity="1"><g transform="translate(258.530729, 285.418159)"><g><path d="M 1.78125 0 C 1.601562 0 1.460938 -0.046875 1.359375 -0.140625 C 1.253906 -0.242188 1.203125 -0.378906 1.203125 -0.546875 L 1.203125 -9.203125 C 1.203125 -9.359375 1.253906 -9.488281 1.359375 -9.59375 C 1.460938 -9.695312 1.601562 -9.75 1.78125 -9.75 L 4.484375 -9.75 C 6.035156 -9.75 7.238281 -9.328125 8.09375 -8.484375 C 8.945312 -7.640625 9.375 -6.4375 9.375 -4.875 C 9.375 -3.320312 8.941406 -2.117188 8.078125 -1.265625 C 7.222656 -0.421875 6.023438 0 4.484375 0 Z M 4.40625 -0.96875 C 6.9375 -0.96875 8.203125 -2.269531 8.203125 -4.875 C 8.203125 -7.476562 6.9375 -8.78125 4.40625 -8.78125 L 2.34375 -8.78125 L 2.34375 -0.96875 Z M 4.40625 -0.96875 "/></g></g></g><g fill="#ffffff" fill-opacity="1"><g transform="translate(274.776654, 285.418159)"><g/></g></g></svg>